<svg width="25" height="15" viewBox="0 0 25 15" fill="none" xmlns="http://www.w3.org/2000/svg">
<path d="M6.888 14.168C9.464 14.168 11.564 12.768 12.6 10.724V13.888H14.252V7.056C14.252 3.08 11.116 0 7.112 0C3.052 0 0 3.192 0 7.056C0 10.976 2.968 14.168 6.888 14.168ZM7.112 12.516C4.116 12.516 1.736 10.052 1.736 7.084C1.736 4.116 4.116 1.652 7.112 1.652C10.136 1.652 12.516 4.116 12.516 7.084C12.516 10.052 10.136 12.516 7.112 12.516Z" fill="#DAC5A7"/>
<path d="M18.4621 13.888V5.6C18.4621 3.276 19.7501 1.792 21.8221 1.792C22.6061 1.792 23.3621 1.988 24.0341 2.38V0.615999C23.3341 0.279999 22.5221 0.112 21.6821 0.112C18.5461 0.112 16.7261 2.352 16.7261 5.516V13.888H18.4621Z" fill="#DAC5A7"/>
</svg>
